<svg xmlns="http://www.w3.org/2000/svg" xmlns:xlink="http://www.w3.org/1999/xlink" viewBox="0 0 2240.78 1683.13"><defs><style>.cls-1,.cls-16,.cls-2{fill:none;}.cls-10,.cls-11,.cls-12,.cls-13,.cls-14,.cls-16,.cls-17,.cls-18,.cls-19,.cls-2,.cls-20,.cls-22,.cls-23,.cls-24,.cls-25,.cls-26,.cls-27,.cls-28,.cls-29,.cls-30,.cls-31,.cls-32,.cls-33,.cls-34,.cls-4,.cls-6,.cls-7,.cls-8,.cls-9{stroke:#000;}.cls-2{stroke-linecap:round;stroke-width:0.5px;}.cls-10,.cls-14,.cls-19,.cls-2,.cls-4,.cls-6,.cls-7{stroke-miterlimit:10;}.cls-3{isolation:isolate;}.cls-4{fill:#dbc78d;}.cls-10,.cls-11,.cls-12,.cls-13,.cls-14,.cls-16,.cls-17,.cls-18,.cls-19,.cls-20,.cls-22,.cls-23,.cls-24,.cls-25,.cls-26,.cls-27,.cls-28,.cls-29,.cls-30,.cls-31,.cls-32,.cls-33,.cls-34,.cls-4,.cls-6,.cls-7,.cls-8,.cls-9{stroke-width:2px;}.cls-5{opacity:0.19;mix-blend-mode:multiply;fill:url(#_10_dpi_20_2);}.cls-7{fill:#f07f2c;}.cls-8{fill:#af714f;}.cls-11,.cls-12,.cls-13,.cls-16,.cls-17,.cls-18,.cls-20,.cls-22,.cls-23,.cls-24,.cls-25,.cls-26,.cls-27,.cls-28,.cls-29,.cls-30,.cls-31,.cls-32,.cls-33,.cls-34,.cls-8,.cls-9{stroke-linejoin:round;}.cls-9{fill:#c88e72;}.cls-10{fill:#391d17;}.cls-11{fill:#d3ddbf;}.cls-12{fill:#e7f1e0;}.cls-13{fill:#9e7842;}.cls-14{fill:#d20a11;}.cls-15,.cls-27{fill:#92b193;}.cls-17{fill:#e0d5e0;}.cls-18,.cls-21{fill:#fff;}.cls-19{fill:#131324;}.cls-20{fill:#1d1d1b;}.cls-22{fill:#e6dae7;}.cls-23{fill:#cbae78;}.cls-24{fill:#684e2f;}.cls-25{fill:#94794f;}.cls-26{fill:#884a16;}.cls-28{fill:#e6ab55;}.cls-29{fill:#c5d7ea;}.cls-30{fill:#f4eed8;}.cls-31{fill:#5d210d;}.cls-32{fill:#5a8bba;}.cls-33{fill:#0085ac;}.cls-34{fill:#ffdf8c;}</style><pattern id="_10_dpi_20_2" data-name="10 dpi 20% 2" width="28.8" height="28.8" patternTransform="translate(255.03 3424.61) scale(4.43)" patternUnits="userSpaceOnUse" viewBox="0 0 28.8 28.8"><rect class="cls-1" width="28.8" height="28.8"/><path class="cls-2" d="M2.75,28.08c.37-.06.71.42,1,.62a3.32,3.32,0,0,1,1.61,2,3.61,3.61,0,0,0,.31,1.53,4.72,4.72,0,0,0,1.28.93c.65.45.51,1.81,1.16,2.26s1.23,1,1.9,1.37A34.67,34.67,0,0,0,14.4,39c1,.41,2.81-.26,3.69.3a10,10,0,0,1,1.71,1.07c.57.56.51,1.1.75,1.81s1.08.92,1.74,1.32a19.14,19.14,0,0,0,1.83,1c.56.27,1.25.4,1.77.7s.25.63,0,1-.48.53.1.83c.28.15.52.3.77.46"/><path class="cls-2" d="M20.75,29c.26.66,1.3.68,1.47,1.45.12.58-.58.82-.32,1.38s1.34.72,2,.84,2,.16,2.4.76c.3.42-.21.8.07,1.13s.87.23,1.14.52.11.39.25.53.55.17.75.47"/><path class="cls-2" d="M5.58,28c0,.8,1.64,1.38,2.07,2s0,1.37.51,2"/><path class="cls-2" d="M17.12,28.42c0,.07,0,.09,0,.14.29.56.94.8,1.14,1.47a1.57,1.57,0,0,1,0,.86c-.16,1,.58,1.15,1.3,1.62"/><path class="cls-2" d="M27.76,21.86c.59.76,1.82,1,2.63,1.49A3.68,3.68,0,0,1,32,25c.64,1,1.61,1.07,2.67,1.49A10,10,0,0,1,37,27.85c.53.4.91,1,1.47,1.34"/><path class="cls-2" d="M26.68,18.53c2.05.6,3.6,1.86,5.4,2.95A26.22,26.22,0,0,1,37,25.32a12.19,12.19,0,0,0,4,2.15c1.22.51,2.1,1.68,3.33,2.06"/><path class="cls-2" d="M26.76,13.78c1.33.5,2.43,1.57,3.81,2a11.41,11.41,0,0,1,4.59,2.72c1.06.93.49,1.1.25,2.11s2,1.35,2.78,1.93c1.36,1,3,1.26,4.45,2.1.81.48,1,1.22,1.68,1.69,1.07.71,2.43,1,3.49,1.75a4.81,4.81,0,0,0,1.95,1"/><path class="cls-2" d="M26.1,8.4c.06.46.39.65.79.95a47.71,47.71,0,0,0,6.26,3.47c2,1,2.34,2,4.24,3.22a14.8,14.8,0,0,1,3.24,2.17c1.32,1.42-.39.83-.72,1.76s3.3,1.71,3.73,1.92c1.23.58,2.85.9,3.94,1.71,1.3.95-.3.86,0,1.81.19.75,2.27,1.23,2.82,1.47A13.63,13.63,0,0,1,52.47,28,10.07,10.07,0,0,0,55,29.53"/><path class="cls-2" d="M28.16,7.22a17.72,17.72,0,0,1,2.21,1.69,28.8,28.8,0,0,0,6.93,3.57A24.26,24.26,0,0,1,42,15.14c1.07.68,2.26,1.07,3.37,1.66.68.36-.16,1.12.29,1.81s2.2.85,2.64,1.41c.85,1.1,3,1.39,3.34,2.82-.61.25-.52.61-.09,1,.85.74,2.42.53,3.44.91a13.38,13.38,0,0,1,2.34,1.55c1,.63,2,1.25,3.05,1.8"/><path class="cls-2" d="M26.05.61c.62-.11,1.61.86,2.11,1.17a26.84,26.84,0,0,0,2.89,1.56,3.54,3.54,0,0,1,1.84,1.25c.42.77-.18,1.82.37,2.4s1.51,2.44,2.37,2.73a38.07,38.07,0,0,1,6.45,3c.78.42,1.49-.78,1.88,0s.65.69,1.3.83a5.93,5.93,0,0,1,3.25,1.37,11.08,11.08,0,0,1,1.19,1.68c.36.61.43,1.34,1,1.78s1.92.29,2.24,1.2c.11.31,0,.31.23.55a6.63,6.63,0,0,0,1.17.65,11,11,0,0,0,1.19.59c.3.12.72.19.91.47"/><path class="cls-2" d="M27.84,16.16a11.69,11.69,0,0,0,1.36.72c.72.42,1.37.86,2.12,1.22s1.56,1.07,2.43,1.44"/><path class="cls-2" d="M24.88,22.58a5.7,5.7,0,0,0,1.53.74c.71.31,1.37.69,2.06,1,.31.15.65.14,1,.27s.72.64,1.17.83"/><path class="cls-2" d="M-1,21.86c.59.76,1.82,1,2.63,1.49A3.68,3.68,0,0,1,3.18,25c.64,1,1.61,1.07,2.67,1.49a10,10,0,0,1,2.31,1.33c.53.4.92,1,1.47,1.34"/><path class="cls-2" d="M-2.12,18.53c2.05.6,3.6,1.86,5.4,2.95a25.9,25.9,0,0,1,4.89,3.84,12.19,12.19,0,0,0,4,2.15c1.22.51,2.1,1.68,3.33,2.06"/><path class="cls-2" d="M-2,13.78c1.33.5,2.43,1.57,3.81,2a11.41,11.41,0,0,1,4.59,2.72c1.06.93.49,1.1.25,2.11s2,1.35,2.78,1.93c1.36,1,3,1.26,4.45,2.1.81.48,1,1.22,1.68,1.69,1.07.71,2.43,1,3.49,1.75a4.81,4.81,0,0,0,1.95,1"/><path class="cls-2" d="M-2.7,8.4c.06.46.39.65.79.95a47.71,47.71,0,0,0,6.26,3.47c2,1,2.34,2,4.24,3.22a14.8,14.8,0,0,1,3.24,2.17c1.32,1.42-.39.83-.72,1.76s3.3,1.71,3.73,1.92c1.23.58,2.85.9,3.94,1.71,1.3.95-.3.86-.05,1.81.19.75,2.27,1.23,2.82,1.47A13.63,13.63,0,0,1,23.67,28a10.07,10.07,0,0,0,2.56,1.57"/><path class="cls-2" d="M-.64,7.22A17.72,17.72,0,0,1,1.57,8.91,28.8,28.8,0,0,0,8.5,12.48a24.26,24.26,0,0,1,4.67,2.66c1.07.68,2.26,1.07,3.37,1.66.68.36-.16,1.12.29,1.81s2.2.85,2.64,1.41c.85,1.1,3,1.39,3.34,2.82-.61.25-.52.61-.09,1,.85.74,2.42.53,3.44.91a13.38,13.38,0,0,1,2.34,1.55c1,.63,2,1.25,3.05,1.8"/><path class="cls-2" d="M-2.75.61c.62-.11,1.61.86,2.12,1.17A25.78,25.78,0,0,0,2.25,3.34,3.54,3.54,0,0,1,4.09,4.59c.42.77-.18,1.82.37,2.4S6,9.43,6.83,9.72a38.07,38.07,0,0,1,6.45,3c.78.42,1.49-.78,1.88,0s.65.69,1.3.83a5.93,5.93,0,0,1,3.25,1.37,11.08,11.08,0,0,1,1.19,1.68c.36.61.43,1.34,1,1.78s1.92.29,2.24,1.2c.11.31,0,.31.23.55a6.63,6.63,0,0,0,1.17.65,12,12,0,0,0,1.19.59c.3.12.72.19.91.47"/><path class="cls-2" d="M2.75-.72c.37-.06.71.42,1,.62a3.32,3.32,0,0,1,1.61,2,3.64,3.64,0,0,0,.31,1.53,4.72,4.72,0,0,0,1.28.93c.65.45.51,1.8,1.16,2.26S9.3,7.61,10,8a34.67,34.67,0,0,0,4.43,2.13c1,.41,2.81-.26,3.69.3a10,10,0,0,1,1.71,1.07c.57.56.51,1.1.75,1.81s1.08.92,1.74,1.32,1.2.7,1.83,1,1.25.4,1.77.7.25.63,0,1-.48.53.1.83c.28.15.52.3.77.46"/><path class="cls-2" d="M9.5.32c.9.5,1.68,1.71,1,2.17s-.83.71,0,1.2c1.14.68.62,1.65,1.84,2.2.75.34,1.51.7,2.28,1a1.31,1.31,0,0,0,1.19,0,3.77,3.77,0,0,1,3.35.32A13.3,13.3,0,0,1,21,8.28a1.12,1.12,0,0,1,.62,1.07c-.08.64-.31,1,.18,1.49a4.54,4.54,0,0,0,1.37.79,1.71,1.71,0,0,1,.72.61c.11.23,0,.39.21.58s.79.21,1.07.35.63.39,1,.53a2,2,0,0,0,.59.12c.4.08.33.16.75.42"/><path class="cls-2" d="M15.21.61c1.06.65-.22,1-.9,2-.57.88-.49,1.09.53,1.37,1.41.38,4.56,1.41,5.93,1.94a6.16,6.16,0,0,1,1.76.92,2.72,2.72,0,0,0,2,.6,2.66,2.66,0,0,1,1.29.38c.33.31.14.82.47,1.21"/><path class="cls-2" d="M20.75.24c.26.66,1.3.68,1.47,1.45.12.58-.58.81-.32,1.38s1.34.72,2,.84,2,.16,2.4.76c.3.42-.21.8.07,1.13s.87.23,1.14.52c.14.14.11.39.25.53s.55.17.75.47"/><path class="cls-2" d="M-1,16.16a11.07,11.07,0,0,0,1.37.72c.71.42,1.36.86,2.11,1.22S4.08,19.17,5,19.54"/><path class="cls-2" d="M23.87,25.87c.3,0,.48.17.73.31.57.31,1.18.52,1.73.87s1.39.8,2.05,1.25a25.15,25.15,0,0,0,3.11,1.57"/><path class="cls-2" d="M5.58-.84c0,.8,1.64,1.38,2.07,2s0,1.37.51,2"/><path class="cls-2" d="M15,8.29a4.38,4.38,0,0,0,1.77.21,5.78,5.78,0,0,1,2.53.7"/><path class="cls-2" d="M17.12-.38c0,.07,0,.09,0,.14.29.56.94.8,1.14,1.47a1.57,1.57,0,0,1,0,.86c-.16,1,.58,1.15,1.3,1.61"/><path class="cls-2" d="M24.66,1.91c.57.43,1.13.87,1.72,1.28s1,.45,1.47.72c1,.49,2.78,1.18,3.19,2.25"/><path class="cls-2" d="M24.66,10.41c1.18,1,2.77,1.31,4,2.17a20.37,20.37,0,0,0,2.22,1.29"/><path class="cls-2" d="M14.33,18.41c.21.46.2,1,.56,1.43a5.09,5.09,0,0,0,1.55.81c.42.21.84.44,1.26.64"/><path class="cls-2" d="M8.41,18.12c0,.36.33.69.4,1.05.14.78,0,.89.6,1.49"/><path class="cls-2" d="M16,23.91a9.58,9.58,0,0,0,1.42,1"/><path class="cls-2" d="M17.45,15.45a3.56,3.56,0,0,1,1.26.91c.41.55.35,1.21,1,1.59"/><path class="cls-2" d="M-3.92,22.58a5.85,5.85,0,0,0,1.53.74c.71.31,1.37.69,2.06,1,.31.15.65.14,1,.27s.72.64,1.17.83"/><path class="cls-2" d="M9.41,24.25c.11.22.37.26.59.35a10.76,10.76,0,0,1,1.6.87,8.4,8.4,0,0,0,1.05.5c.3.14.53.42.84.53"/><path class="cls-2" d="M12.12,1.08c1.09.53.08,1.42.17,2.12"/><path class="cls-2" d="M-29.44,7.22a17.72,17.72,0,0,1,2.21,1.69,28.8,28.8,0,0,0,6.93,3.57,24.26,24.26,0,0,1,4.67,2.66c1.07.68,2.26,1.07,3.37,1.66.68.36-.16,1.12.29,1.81s2.2.85,2.64,1.41c.85,1.1,3,1.39,3.34,2.82-.61.25-.52.61-.09,1,.85.74,2.42.53,3.45.91A13.68,13.68,0,0,1-.3,26.29c1,.63,2,1.25,3.05,1.8"/><path class="cls-2" d="M-4.93,25.87c.3,0,.48.17.73.31.57.31,1.18.52,1.73.87s1.39.8,2.05,1.25a25.15,25.15,0,0,0,3.11,1.57"/><path class="cls-2" d="M-4.14,1.91c.57.43,1.13.87,1.72,1.28a15.56,15.56,0,0,0,1.48.72C0,4.4,1.83,5.09,2.24,6.16"/><path class="cls-2" d="M-4.14,10.41c1.18,1,2.77,1.31,4,2.17a20.37,20.37,0,0,0,2.22,1.29"/><path class="cls-2" d="M27.76-6.94c.59.76,1.82,1,2.63,1.49A3.68,3.68,0,0,1,32-3.77c.64,1,1.61,1.07,2.67,1.49A9.64,9.64,0,0,1,37-.95c.53.4.91,1,1.47,1.34"/><path class="cls-2" d="M26.68-10.27c2.05.6,3.6,1.86,5.4,2.95A26.22,26.22,0,0,1,37-3.48a12,12,0,0,0,4,2.14C42.15-.82,43,.35,44.26.73"/><path class="cls-2" d="M26.76-15c1.33.5,2.43,1.57,3.81,2a11.41,11.41,0,0,1,4.59,2.72c1.06.93.49,1.1.25,2.1s2,1.36,2.78,1.94c1.36,1,3,1.26,4.45,2.1.81.48,1,1.22,1.68,1.69,1.07.71,2.43,1,3.49,1.75a4.81,4.81,0,0,0,1.95,1"/><path class="cls-2" d="M26.1-20.4c.06.46.39.65.79.95A47.71,47.71,0,0,0,33.15-16c2,1.05,2.34,2.05,4.24,3.22a14.8,14.8,0,0,1,3.24,2.17c1.32,1.42-.39.83-.72,1.76s3.3,1.71,3.73,1.92c1.23.58,2.85.9,3.94,1.71,1.3,1-.3.86,0,1.81.19.75,2.27,1.23,2.82,1.47A13.63,13.63,0,0,1,52.47-.84,10.07,10.07,0,0,0,55,.73"/><path class="cls-2" d="M-1-6.94c.59.76,1.82,1,2.63,1.49A3.68,3.68,0,0,1,3.18-3.77c.64,1,1.61,1.07,2.67,1.49A9.64,9.64,0,0,1,8.16-.95c.53.4.92,1,1.47,1.34"/><path class="cls-2" d="M-2.12-10.27c2.05.6,3.6,1.86,5.4,2.95A25.9,25.9,0,0,1,8.17-3.48a12,12,0,0,0,4,2.14c1.22.52,2.1,1.69,3.33,2.07"/><path class="cls-2" d="M-2-15c1.33.5,2.43,1.57,3.81,2a11.41,11.41,0,0,1,4.59,2.72c1.06.93.49,1.1.25,2.1s2,1.36,2.78,1.94c1.36,1,3,1.26,4.45,2.1.81.48,1,1.22,1.68,1.69,1.07.71,2.43,1,3.49,1.75A4.81,4.81,0,0,0,21,.31"/><path class="cls-2" d="M-2.7-20.4c.06.46.39.65.79.95A47.71,47.71,0,0,0,4.35-16c2,1.05,2.34,2.05,4.24,3.22a14.8,14.8,0,0,1,3.24,2.17c1.32,1.42-.39.83-.72,1.76s3.3,1.71,3.73,1.92c1.23.58,2.85.9,3.94,1.71,1.3,1-.3.86-.05,1.81.19.75,2.27,1.23,2.82,1.47A13.63,13.63,0,0,1,23.67-.84,10.07,10.07,0,0,0,26.23.73"/><path class="cls-2" d="M23.87-2.93c.3,0,.48.17.73.31.57.31,1.18.52,1.73.87s1.39.8,2.05,1.25a25.15,25.15,0,0,0,3.11,1.57"/><path class="cls-2" d="M-4.93-2.93c.3,0,.48.17.73.31.57.31,1.18.52,1.73.87S-1.08-.95-.42-.5A25.15,25.15,0,0,0,2.69,1.07"/></pattern></defs><title>SignUp</title><g class="cls-3"><g id="Layer_1" data-name="Layer 1"><polygon class="cls-4" points="1846.13 1112.84 957.75 1382.49 394.65 1103.01 1283.03 833.36 1846.13 1112.84"/><polygon class="cls-5" points="1846.13 1112.84 957.75 1382.49 394.65 1103.01 1283.03 833.36 1846.13 1112.84"/><path class="cls-6" d="M981.62,928.76c1.26,17.32,69.18,14.61,151.7-6.06s148.4-51.48,147.15-68.8c-.49-6.68-10.86-10.37-28.14-11.22l-269.85,81.9A8.85,8.85,0,0,0,981.62,928.76Z"/><path class="cls-5" d="M981.62,928.76c1.26,17.32,69.18,14.61,151.7-6.06s148.4-51.48,147.15-68.8c-.49-6.68-10.86-10.37-28.14-11.22l-269.85,81.9A8.85,8.85,0,0,0,981.62,928.76Z"/><polygon class="cls-6" points="1820.7 1101.04 1720.8 1129.9 1635.63 1087.51 1735.54 1058.65 1820.7 1101.04"/><polygon class="cls-7" points="1464.89 1127.24 909.83 1296.05 667.14 1175.6 1222.2 1006.78 1464.89 1127.24"/><ellipse class="cls-6" cx="1167.2" cy="1137.71" rx="51.05" ry="121.2" transform="translate(-42.25 2230.39) rotate(-86.36)"/><ellipse class="cls-6" cx="774.55" cy="1076.72" rx="92.95" ry="29.58" transform="translate(-213.78 192.15) rotate(-12.44)"/><path class="cls-6" d="M1261.25,937.63,626.06,1129.54l-121.14-60,645.19-194.93L1261.89,930A4.13,4.13,0,0,1,1261.25,937.63Z"/><path class="cls-8" d="M1153.33,803.43a121,121,0,0,0-55.2,0h-24.54l6.31,99c1.21,8.66,21.7,15.36,45.83,15.36s44.62-6.7,45.83-15.36l6.3-99Z"/><path class="cls-9" d="M1178.09,801.84c-1.58,11.27-25,19.92-52.36,19.92s-50.79-8.65-52.36-19.92c-1.68-12,21.72-22.28,52.36-22.28S1179.76,789.85,1178.09,801.84Z"/><path class="cls-8" d="M1125.73,788.68c21.61,0,38.69,6.09,41.39,13.77a6.93,6.93,0,0,0,.31-1.23c1.33-9-17.3-16.81-41.7-16.81s-43,7.77-41.7,16.81a6.16,6.16,0,0,0,.31,1.23C1087,794.77,1104.12,788.68,1125.73,788.68Z"/><path class="cls-10" d="M1125.73,816.24c20.74,0,38.62-5.9,41.39-13.79-2.7-7.68-19.78-13.77-41.39-13.77s-38.7,6.09-41.39,13.77C1087.11,810.34,1105,816.24,1125.73,816.24Z"/><path class="cls-11" d="M993.08,803.14h0a9.69,9.69,0,0,0-7-.52l-16.5,5a15.39,15.39,0,0,0-11,14.76l.15,110.1,120.48,60,34.82-129.06Z"/><path class="cls-12" d="M1106.57,862.6l-16.5,5a15.38,15.38,0,0,0-11,14.75l.15,110.11,40-12.06L1119.17,872A9.78,9.78,0,0,0,1106.57,862.6Z"/><path class="cls-12" d="M1052.69,915.38l-114.9-57.2-419.21,127,135.85,67.62.18,40.89,419.22-127-.08-17.48A38,38,0,0,0,1052.69,915.38Z"/><path class="cls-11" d="M929.18,744h0a9.69,9.69,0,0,0-7-.52L543.34,856.6a15.39,15.39,0,0,0-11,14.76l9.29,110.1,27.46,13.64,388-237.16Z"/><path class="cls-12" d="M949.65,757.17,570.8,870.24A15.39,15.39,0,0,0,559.85,885l9.29,110.1,402.4-120.16-9.29-108.42A9.78,9.78,0,0,0,949.65,757.17Z"/><path class="cls-6" d="M1718.32,1049.31l-152.9,46.19a77.45,77.45,0,0,1-57.14-4.83L1271.86,972.54a14.22,14.22,0,0,1,2.23-26.33l148.27-44.78Z"/><path class="cls-13" d="M729.51,972.18c57.07,9.13,29.69,77.32,29.69,77.32s-13.62,8.84-11.38,14.69,37.79,25.63,61.15,26c26,.42.81-26.9-38.43-46.08,12.61-27.54,11.9-70.64-32.08-82"/><path class="cls-13" d="M666.28,988.77c56.77,10.82,27.38,78.16,27.38,78.16s-12.55,4.83-11.46,11c2.78,15.73,30.94,50.07,47.31,47.55s2-28.18-23.76-61.9c13.42-27.15,13.39-71.95-30.23-84.65"/><ellipse class="cls-13" cx="705" cy="936.71" rx="89.87" ry="57.38" transform="translate(-116.13 99.93) rotate(-7.49)"/><ellipse class="cls-13" cx="705" cy="857.39" rx="58.8" ry="37.54" transform="translate(-105.79 99.26) rotate(-7.49)"/><path class="cls-14" d="M728.47,873.65a36.77,36.77,0,0,1-24.86-4.23c-1.58-.95-1.87-3.18-.64-5s3.52-2.49,5.1-1.54c9.79,5.89,25.41,6,34.61-4.06,1.48-1.62,3.77-1.92,5.13-.68s1.24,3.55-.23,5.16A33.7,33.7,0,0,1,728.47,873.65Z"/><ellipse class="cls-14" cx="747.27" cy="841.04" rx="8.21" ry="6.84" transform="translate(-154.72 1513.48) rotate(-85.08)"/><ellipse class="cls-14" cx="699.59" cy="849.52" rx="8.21" ry="6.84" transform="translate(-206.76 1473.73) rotate(-85.08)"/><path class="cls-11" d="M539.44,940.3h0a9.69,9.69,0,0,0-7-.52l-16.5,5a15.39,15.39,0,0,0-11,14.76l.15,110.1,120.48,60,34.82-129.06Z"/><path class="cls-12" d="M652.92,999.76l-16.49,5a15.38,15.38,0,0,0-10.95,14.75l.15,110.11,40-12.06-.14-108.42A9.78,9.78,0,0,0,652.92,999.76Z"/><path class="cls-15" d="M1109.21,797.19c-.51-2.23-1.64-4.33-2.31-6.52s-1.74-4.22-2.55-6.37-1.2-4.55-2.23-6.56-3.15-3.48-4.17-5.56a69.75,69.75,0,0,1-3-8.4c-1-2.84-1.67-5.76-2.46-8.55-.66-2.31-2.16-4.32-2.88-6.56s-.32-4.87-1-7.15-.87-4.59-1.36-6.95c-.58-2.82-2.65-5.3-3.36-8.08s-.82-5.74-1.59-8.51-.8-5.74-1.54-8.53-2.75-5.23-3.39-8-.62-5.74-1.09-8.59-.88-5.46-1.31-8.22,0-5.61-.49-8.35-1-5.49-1.48-8.21-2.52-5.17-3.1-7.88,0-5.72-.72-8.38-1.35-5.38-2-8-2.58-5.15-3.06-7.86-.9-5.51-1.2-8.26.74-5.59.65-8.38-1.07-5.5-.93-8.31,1.81-5.49,1.91-8.27-.47-5.58-.4-8.36-.86-5.57-.83-8.35,1.34-5.54,1.36-8.32-1.14-5.56-1.14-8.35.92-4.84.91-7.62a30.49,30.49,0,0,1,2.69,6.52c.81,2.48,2.17,4.9,2.77,7.43s1.46,5.23,2,7.59c.68,2.71-.46,5.87.21,8.59s2.63,5.11,3.29,7.82,1.83,5.32,2.47,8,.17,5.7.78,8.43,1.08,5.49,1.67,8.22,1.09,5.48,1.64,8.22.72,5.44,1.25,8.14,1,5.39,1.46,8.09,1,5.39,1.46,8.09,2.38,5.15,2.86,7.85.11,5.55.59,8.26,2.08,5.2,2.56,7.9-.4,5.65.08,8.34c.5,2.87,1.51,5.67,2.09,8.56s1.6,5.64,2.2,8.52.51,5.87,1.08,8.74,2.23,5.56,2.72,8.44-.36,6,0,8.88,1.8,5.52,2.23,8.36,0,5.78.42,8.61,1,5.65,1.17,8.49c.16,2.32,0,4.64.11,6.94s1,4.55,1.27,6.85a66.81,66.81,0,0,0,.66,6.9c.71,3.45,2.86,6.47,3.68,9.86s.07,7.6,1.82,10.33"/><path class="cls-16" d="M1109.21,797.19c-.51-2.23-1.64-4.33-2.31-6.52s-1.74-4.22-2.55-6.37-1.2-4.55-2.23-6.56-3.15-3.48-4.17-5.56a69.75,69.75,0,0,1-3-8.4c-1-2.84-1.67-5.76-2.46-8.55-.66-2.31-2.16-4.32-2.88-6.56s-.32-4.87-1-7.15-.87-4.59-1.36-6.95c-.58-2.82-2.65-5.3-3.36-8.08s-.82-5.74-1.59-8.51-.8-5.74-1.54-8.53-2.75-5.23-3.39-8-.62-5.74-1.09-8.59-.88-5.46-1.31-8.22,0-5.61-.49-8.35-1-5.49-1.48-8.21-2.52-5.17-3.1-7.88,0-5.72-.72-8.38-1.35-5.38-2-8-2.58-5.15-3.06-7.86-.9-5.51-1.2-8.26.74-5.59.65-8.38-1.07-5.5-.93-8.31,1.81-5.49,1.91-8.27-.47-5.58-.4-8.36-.86-5.57-.83-8.35,1.34-5.54,1.36-8.32-1.14-5.56-1.14-8.35.92-4.84.91-7.62a30.49,30.49,0,0,1,2.69,6.52c.81,2.48,2.17,4.9,2.77,7.43s1.46,5.23,2,7.59c.68,2.71-.46,5.87.21,8.59s2.63,5.11,3.29,7.82,1.83,5.32,2.47,8,.17,5.7.78,8.43,1.08,5.49,1.67,8.22,1.09,5.48,1.64,8.22.72,5.44,1.25,8.14,1,5.39,1.46,8.09,1,5.39,1.46,8.09,2.38,5.15,2.86,7.85.11,5.55.59,8.26,2.08,5.2,2.56,7.9-.4,5.65.08,8.34c.5,2.87,1.51,5.67,2.09,8.56s1.6,5.64,2.2,8.52.51,5.87,1.08,8.74,2.23,5.56,2.72,8.44-.36,6,0,8.88,1.8,5.52,2.23,8.36,0,5.78.42,8.61,1,5.65,1.17,8.49c.16,2.32,0,4.64.11,6.94s1,4.55,1.27,6.85a66.81,66.81,0,0,0,.66,6.9c.71,3.45,2.86,6.47,3.68,9.86s.07,7.6,1.82,10.33"/><path class="cls-15" d="M1092.54,798c-1.56-1.94-2.58-4.76-3.56-7.26-1.13-2.9-1.68-6-3.17-8.73s-2.45-5.72-4-8.42-3.77-5-4.94-7.87c-1-2.39-1.13-5.11-2.24-7.36s-3.84-3.67-5.15-5.85-2.33-4.42-3.82-6.52c-1.7-2.38-2.54-5.21-3.88-7.7s-3.19-4.71-4.68-7.21-1.94-5.11-3.32-7.33-4.1-3.7-5.29-6.21c-1.37-2.88-2.77-5.64-4.33-8.39s-2.3-6-3.9-8.71c-1.27-2.17-2.71-4.48-3.91-6.9s-1.9-4.44-3.5-6.36c2.34,1.35,4.51,1.91,6.75,3.45s4.48,3.13,6.58,4.85,3.91,3.8,5.86,5.68,4.14,3.6,5.93,5.62,3.73,4,5.36,6.19a84.65,84.65,0,0,1,4.69,7.26c1.48,2.44,2.6,5.12,3.92,7.65s2.13,5.32,3.38,7.89,3.46,4.66,4.72,7.21,1.48,5.66,2.86,8.16,3,4.87,4.56,7.26c1.76,2.65,4,4.93,5.39,7.61s1.55,6,2.42,9,2.74,5.71,2.9,8.92c.08,1.63-1.81,4.68-1.89,7.6-.09,3.27,1,6.18,2.37,7"/><path class="cls-16" d="M1092.54,798c-1.56-1.94-2.58-4.76-3.56-7.26-1.13-2.9-1.68-6-3.17-8.73s-2.45-5.72-4-8.42-3.77-5-4.94-7.87c-1-2.39-1.13-5.11-2.24-7.36s-3.84-3.67-5.15-5.85-2.33-4.42-3.82-6.52c-1.7-2.38-2.54-5.21-3.88-7.7s-3.19-4.71-4.68-7.21-1.94-5.11-3.32-7.33-4.1-3.7-5.29-6.21c-1.37-2.88-2.77-5.64-4.33-8.39s-2.3-6-3.9-8.71c-1.27-2.17-2.71-4.48-3.91-6.9s-1.9-4.44-3.5-6.36c2.34,1.35,4.51,1.91,6.75,3.45s4.48,3.13,6.58,4.85,3.91,3.8,5.86,5.68,4.14,3.6,5.93,5.62,3.73,4,5.36,6.19a84.65,84.65,0,0,1,4.69,7.26c1.48,2.44,2.6,5.12,3.92,7.65s2.13,5.32,3.38,7.89,3.46,4.66,4.72,7.21,1.48,5.66,2.86,8.16,3,4.87,4.56,7.26c1.76,2.65,4,4.93,5.39,7.61s1.55,6,2.42,9,2.74,5.71,2.9,8.92c.08,1.63-1.81,4.68-1.89,7.6-.09,3.27,1,6.18,2.37,7"/><path class="cls-15" d="M1097.07,802.85a28.8,28.8,0,0,1-2.13-6.71c-.37-2.35-1.13-4.71-1.35-7.1s0-5-.42-7.22c-.45-2.62-1-5.24-1.57-7.82s-1.09-5.22-1.81-7.77-1.67-5.05-2.49-7.57-2.25-4.84-3.15-7.33-1.88-5-2.84-7.42c-1.1-2.81-2.24-5.62-3.35-8.45s-2.18-5.64-3.34-8.44-2.44-5.54-3.69-8.29a77.89,77.89,0,0,1-2.89-8c-.9-2.69-.7-5.66-1.41-8.39s-1.37-5.44-2-8.19-2.66-5.13-3.38-7.88-1.2-5.49-1.84-8.21-.35-5.67-1-8.41-2-5.3-2.54-8-.92-5.54-1.53-8.27-1.81-5.33-2.46-8.05-.22-5.72-1-8.43c-.63-2.29-2.6-4.25-3.19-6.57s-.34-4.81-.76-7.15c1.46.69,2.88,2.67,4.37,4.71a62.56,62.56,0,0,1,3.77,5.38c1.16,2.17,2.78,4.08,4,6.23s1.93,4.58,3.11,6.75,1.93,4.53,3,6.76,2.17,4.77,3.28,7.16,3.51,4.16,4.59,6.57.71,5.42,1.74,7.84,2.35,4.7,3.35,7.13,2.17,4.79,3.11,7.24,1.73,5,2.62,7.43,2.61,4.67,3.43,7.15,1.74,5,2.5,7.49c.87,2.87.88,6,1.49,8.84s1.24,5.81,1.68,8.74.54,5.9.89,8.85a70.49,70.49,0,0,0,1.38,7.37c.55,2.43,1.34,4.83,2,7.25s1.68,4.83,2.12,7.25c.56,3.15-.06,6.32.2,9.3s1.19,6.11,1.25,9.19-.5,6.08-.5,9.24c0,1.84,1,4.86,1.41,8s.34,6.24.52,8"/><path class="cls-16" d="M1097.07,802.85a28.8,28.8,0,0,1-2.13-6.71c-.37-2.35-1.13-4.71-1.35-7.1s0-5-.42-7.22c-.45-2.62-1-5.24-1.57-7.82s-1.09-5.22-1.81-7.77-1.67-5.05-2.49-7.57-2.25-4.84-3.15-7.33-1.88-5-2.84-7.42c-1.1-2.81-2.24-5.62-3.35-8.45s-2.18-5.64-3.34-8.44-2.44-5.54-3.69-8.29a77.89,77.89,0,0,1-2.89-8c-.9-2.69-.7-5.66-1.41-8.39s-1.37-5.44-2-8.19-2.66-5.13-3.38-7.88-1.2-5.49-1.84-8.21-.35-5.67-1-8.41-2-5.3-2.54-8-.92-5.54-1.53-8.27-1.81-5.33-2.46-8.05-.22-5.72-1-8.43c-.63-2.29-2.6-4.25-3.19-6.57s-.34-4.81-.76-7.15c1.46.69,2.88,2.67,4.37,4.71a62.56,62.56,0,0,1,3.77,5.38c1.16,2.17,2.78,4.08,4,6.23s1.93,4.58,3.11,6.75,1.93,4.53,3,6.76,2.17,4.77,3.28,7.16,3.51,4.16,4.59,6.57.71,5.42,1.74,7.84,2.35,4.7,3.35,7.13,2.17,4.79,3.11,7.24,1.73,5,2.62,7.43,2.61,4.67,3.43,7.15,1.74,5,2.5,7.49c.87,2.87.88,6,1.49,8.84s1.24,5.81,1.68,8.74.54,5.9.89,8.85a70.49,70.49,0,0,0,1.38,7.37c.55,2.43,1.34,4.83,2,7.25s1.68,4.83,2.12,7.25c.56,3.15-.06,6.32.2,9.3s1.19,6.11,1.25,9.19-.5,6.08-.5,9.24c0,1.84,1,4.86,1.41,8s.34,6.24.52,8"/><path class="cls-15" d="M1114.8,792.43c.1-2.56-1.25-5.14-1.29-7.7s-.48-5.07-.64-7.63-.23-5.08-.48-7.63.06-5.14-.27-7.68-.33-5.12-.7-7.65-2-4.88-2.36-7.4-.77-5.06-1.2-7.58-.4-5.13-.82-7.65,0-5.18-.42-7.7-1.21-5-1.55-7.53-.68-5.08-1-7.62-1.42-5.24-1.63-7.93.69-5.41.56-8.1-.43-5.33-.48-8,.27-5.35.31-8-1.06-5.41-.93-8.08,2.18-5.23,2.41-7.89-.08-5.39.26-8,.08-5.43.53-8c.43-2.45.24-4.87.45-7.25s.68-4.81.73-7.22.88-4.86.83-7.29-.49-4.84-.58-7.29-.21-4.83-.27-7.3c-.08-2.76-.25-5.52-.07-8.25s.11-5.52.42-8.24,1.6-5.34,1.9-8.07-.11-5.49,0-8.24c.16-3.1,1.47-6.19,1.44-9.3s-1-6.2-1-9.3a49.89,49.89,0,0,1,1.09-11.42,67.1,67.1,0,0,0,1.41,7.53c.51,2.55,1.32,5,2,7.52s0,5.36.62,7.89c.69,2.71,1.92,5.27,2.52,8s1,5.5,1.48,8.24,1.68,5.37,2.16,8.12-.2,5.7.25,8.46,1.62,5.39,2.08,8.15c.41,2.46.67,4.94,1,7.43s.9,4.93,1.09,7.43.27,5,.39,7.5.54,5,.62,7.49-.25,5-.19,7.52,1,5,1.06,7.49-.63,5-.55,7.51c.09,2.66.38,5.3.38,7.92s-1.11,5.25-1.21,7.88,1.19,5.34,1,8-2.11,5.09-2.4,7.72,0,5.27-.4,7.9.53,5.58.16,8.26-1.48,5.3-1.8,8-.77,5.4-1,8.1.1,5.47-.12,8.18-.93,5.37-1.09,8.09-.76,5.41-.84,8.14-.76,5.43-.76,8.17.31,5.64.17,8.61.44,5.77.36,8.66.67,5.74.85,8.56-1.3,6.13-.61,8.83"/><path class="cls-16" d="M1114.8,792.43c.1-2.56-1.25-5.14-1.29-7.7s-.48-5.07-.64-7.63-.23-5.08-.48-7.63.06-5.14-.27-7.68-.33-5.12-.7-7.65-2-4.88-2.36-7.4-.77-5.06-1.2-7.58-.4-5.13-.82-7.65,0-5.18-.42-7.7-1.21-5-1.55-7.53-.68-5.08-1-7.62-1.42-5.24-1.63-7.93.69-5.41.56-8.1-.43-5.33-.48-8,.27-5.35.31-8-1.06-5.41-.93-8.08,2.18-5.23,2.41-7.89-.08-5.39.26-8,.08-5.43.53-8c.43-2.45.24-4.87.45-7.25s.68-4.81.73-7.22.88-4.86.83-7.29-.49-4.84-.58-7.29-.21-4.83-.27-7.3c-.08-2.76-.25-5.52-.07-8.25s.11-5.52.42-8.24,1.6-5.34,1.9-8.07-.11-5.49,0-8.24c.16-3.1,1.47-6.19,1.44-9.3s-1-6.2-1-9.3a49.89,49.89,0,0,1,1.09-11.42,67.1,67.1,0,0,0,1.41,7.53c.51,2.55,1.32,5,2,7.52s0,5.36.62,7.89c.69,2.71,1.92,5.27,2.52,8s1,5.5,1.48,8.24,1.68,5.37,2.16,8.12-.2,5.7.25,8.46,1.62,5.39,2.08,8.15c.41,2.46.67,4.94,1,7.43s.9,4.93,1.09,7.43.27,5,.39,7.5.54,5,.62,7.49-.25,5-.19,7.52,1,5,1.06,7.49-.63,5-.55,7.51c.09,2.66.38,5.3.38,7.92s-1.11,5.25-1.21,7.88,1.19,5.34,1,8-2.11,5.09-2.4,7.72,0,5.27-.4,7.9.53,5.58.16,8.26-1.48,5.3-1.8,8-.77,5.4-1,8.1.1,5.47-.12,8.18-.93,5.37-1.09,8.09-.76,5.41-.84,8.14-.76,5.43-.76,8.17.31,5.64.17,8.61.44,5.77.36,8.66.67,5.74.85,8.56-1.3,6.13-.61,8.83"/><path class="cls-15" d="M1126.43,793.91c0-2.48.44-5,.51-7.42s.13-5,.25-7.41,1.28-4.88,1.43-7.35.09-4.93.24-7.4-.65-5-.5-7.45,1.59-4.85,1.71-7.33-.58-5.26-.52-7.86.35-5.22.38-7.83-.17-5.22-.13-7.83.61-5.19.72-7.8.15-5.2.35-7.81.45-5.16.8-7.77-.11-5.45.29-8.11,1.33-5.24,1.76-7.89.75-5.33,1.19-8,1-5.29,1.44-7.95.09-5.59.51-8.32,2.16-5.28,2.56-8-.16-5.61.22-8.36,1-5.45,1.38-8.19.31-5.55.65-8.29,2.1-5.33,2.43-8.08.63-5.51,1-8.26-.42-5.62-.1-8.37,1.26-5.43,1.58-8.18c.29-2.47,1-4.87,1.4-7.35s-1-5.22-.61-7.69,1-4.9,1.38-7.37,2.45-4.69,2.8-7.16-.51-5.11-.26-7.59.94-4.94,1-7.43a47.31,47.31,0,0,1,.46-7.06c.44-2.31,1.94-4.36,2.57-6.63s.9-4.64,1.54-6.9,1.79-4.44,2.31-6.73c.76-3.33.81-6.57,1.86-9.76.31,2.57.4,4.8.8,7.38s1.66,5,2.08,7.55.31,5.21.68,7.78-.34,5.25-.08,7.83.72,5.08.91,7.63,1.76,5,1.89,7.6-.89,5.17-.81,7.74,0,5.12,0,7.68.2,5.13.17,7.69.9,5.15.83,7.72,0,5.14-.11,7.71-1.85,5.16-2,7.78,1.37,5.35,1.17,8-2,5.1-2.27,7.72-.38,5.23-.6,7.84.38,5.3.16,7.92-1.33,5.16-1.51,7.78,1.27,5.11,1,7.6-1.22,4.88-1.6,7.35-.59,5-1,7.41-2.27,4.63-2.78,7.06-.4,5-.94,7.44-1,4.88-1.61,7.29c-.64,2.81-2,5.45-2.65,8.25s-.76,5.73-1.44,8.53-1.86,5.47-2.54,8.27-1.31,5.61-2,8.4-.92,5.7-1.58,8.51c-.59,2.54-1.49,5-2.12,7.56s-.72,5.21-1.34,7.75-1.66,5-2.22,7.55-.49,5.24-.93,7.81-1.43,5.24-2,8-1.09,5.38-1.59,8.11-.69,5.5-1,8.2.47,5.49.66,8.14"/><path class="cls-16" d="M1126.43,793.91c0-2.48.44-5,.51-7.42s.13-5,.25-7.41,1.28-4.88,1.43-7.35.09-4.93.24-7.4-.65-5-.5-7.45,1.59-4.85,1.71-7.33-.58-5.26-.52-7.86.35-5.22.38-7.83-.17-5.22-.13-7.83.61-5.19.72-7.8.15-5.2.35-7.81.45-5.16.8-7.77-.11-5.45.29-8.11,1.33-5.24,1.76-7.89.75-5.33,1.19-8,1-5.29,1.44-7.95.09-5.59.51-8.32,2.16-5.28,2.56-8-.16-5.61.22-8.36,1-5.45,1.38-8.19.31-5.55.65-8.29,2.1-5.33,2.43-8.08.63-5.51,1-8.26-.42-5.62-.1-8.37,1.26-5.43,1.58-8.18c.29-2.47,1-4.87,1.4-7.35s-1-5.22-.61-7.69,1-4.9,1.38-7.37,2.45-4.69,2.8-7.16-.51-5.11-.26-7.59.94-4.94,1-7.43a47.31,47.31,0,0,1,.46-7.06c.44-2.31,1.94-4.36,2.57-6.63s.9-4.64,1.54-6.9,1.79-4.44,2.31-6.73c.76-3.33.81-6.57,1.86-9.76.31,2.57.4,4.8.8,7.38s1.66,5,2.08,7.55.31,5.21.68,7.78-.34,5.25-.08,7.83.72,5.08.91,7.63,1.76,5,1.89,7.6-.89,5.17-.81,7.74,0,5.12,0,7.68.2,5.13.17,7.69.9,5.15.83,7.72,0,5.14-.11,7.71-1.85,5.16-2,7.78,1.37,5.35,1.17,8-2,5.1-2.27,7.72-.38,5.23-.6,7.84.38,5.3.16,7.92-1.33,5.16-1.51,7.78,1.27,5.11,1,7.6-1.22,4.88-1.6,7.35-.59,5-1,7.41-2.27,4.63-2.78,7.06-.4,5-.94,7.44-1,4.88-1.61,7.29c-.64,2.81-2,5.45-2.65,8.25s-.76,5.73-1.44,8.53-1.86,5.47-2.54,8.27-1.31,5.61-2,8.4-.92,5.7-1.58,8.51c-.59,2.54-1.49,5-2.12,7.56s-.72,5.21-1.34,7.75-1.66,5-2.22,7.55-.49,5.24-.93,7.81-1.43,5.24-2,8-1.09,5.38-1.59,8.11-.69,5.5-1,8.2.47,5.49.66,8.14"/><path class="cls-15" d="M1134.68,790.09c-.22.25-1.06.51-1.26.77a68.67,68.67,0,0,1,.53-9.21c.43-3,2.29-5.77,2.84-8.75s1-6.06,1.44-9c.34-2.62-.16-5.34.13-8s1.2-5.17,1.51-7.79.47-5.25.89-7.85,1.26-5.1,1.88-7.67a74.37,74.37,0,0,1,2.22-7.54c.87-2.47.17-5.34.77-7.84s1.88-4.87,2.38-7.4,2.09-4.84,2.67-7.36.5-5.15,1.33-7.63c.94-2.8,1.94-5.59,2.83-8.42s.88-5.93,1.8-8.75,3.17-5.15,4.22-7.93,1.32-5.82,2.58-8.51c1-2.28,1.66-4.74,2.71-7s2.48-4.34,3.5-6.59,2.8-4.21,3.76-6.49,1.95-4.61,2.8-6.94,1.46-4.78,2.17-7.17.74-4.93,1.27-7.38c.46-2.19,1.83-4.47,2.22-7s-1-5.13-.47-7.44,2.18-4.62,3.22-6.63a44.61,44.61,0,0,1,3,7.56c.67,2.59-.09,5.42.2,8.13s1.53,5.26,1.52,8,.13,5.42-.1,8.12-1,5.34-1.4,8-.85,5.37-1.32,8-1.57,5.27-2.07,7.84-1,5.19-1.56,7.77-.21,5.41-.88,8-1.31,5.14-2,7.7-1.39,5.12-2.11,7.67-1.42,5.1-2.14,7.65-2,4.95-2.68,7.51-1.67,5-2.28,7.62-.32,5.36-.84,7.95-2.5,5.07-3.27,7.74-1.74,5.18-2.68,7.79-1.83,5.17-2.9,7.73-1.16,5.52-2.32,8-2.15,5.11-3.35,7.6-3.52,4.45-4.73,6.93-1.84,5-2.88,7.37-1,5.28-2,7.71-2.78,4.56-3.71,7-2.6,4.63-3.53,7.09"/><path class="cls-16" d="M1134.68,790.09c-.22.25-1.06.51-1.26.77a68.67,68.67,0,0,1,.53-9.21c.43-3,2.29-5.77,2.84-8.75s1-6.06,1.44-9c.34-2.62-.16-5.34.13-8s1.2-5.17,1.51-7.79.47-5.25.89-7.85,1.26-5.1,1.88-7.67a74.37,74.37,0,0,1,2.22-7.54c.87-2.47.17-5.34.77-7.84s1.88-4.87,2.38-7.4,2.09-4.84,2.67-7.36.5-5.15,1.33-7.63c.94-2.8,1.94-5.59,2.83-8.42s.88-5.93,1.8-8.75,3.17-5.15,4.22-7.93,1.32-5.82,2.58-8.51c1-2.28,1.66-4.74,2.71-7s2.48-4.34,3.5-6.59,2.8-4.21,3.76-6.49,1.95-4.61,2.8-6.94,1.46-4.78,2.17-7.17.74-4.93,1.27-7.38c.46-2.19,1.83-4.47,2.22-7s-1-5.13-.47-7.44,2.18-4.62,3.22-6.63a44.61,44.61,0,0,1,3,7.56c.67,2.59-.09,5.42.2,8.13s1.53,5.26,1.52,8,.13,5.42-.1,8.12-1,5.34-1.4,8-.85,5.37-1.32,8-1.57,5.27-2.07,7.84-1,5.19-1.56,7.77-.21,5.41-.88,8-1.31,5.14-2,7.7-1.39,5.12-2.11,7.67-1.42,5.1-2.14,7.65-2,4.95-2.68,7.51-1.67,5-2.28,7.62-.32,5.36-.84,7.95-2.5,5.07-3.27,7.74-1.74,5.18-2.68,7.79-1.83,5.17-2.9,7.73-1.16,5.52-2.32,8-2.15,5.11-3.35,7.6-3.52,4.45-4.73,6.93-1.84,5-2.88,7.37-1,5.28-2,7.71-2.78,4.56-3.71,7-2.6,4.63-3.53,7.09"/><path class="cls-15" d="M1158.31,798.79a22.38,22.38,0,0,1,1.06-9c1.08-3,3-5.6,4.41-8.09,1.23-2.16,2.4-4.35,3.64-6.49s2.82-4.1,4.06-6.25,1-5.16,2.2-7.31,2.68-4.17,3.88-6.34,2.68-4.17,3.85-6.37c1.32-2.46,2.77-4.85,4.13-7.29s2.38-5.08,3.79-7.49,3.73-4.28,5.2-6.65,3.37-4.45,4.92-6.78,2-5.37,3.67-7.63,3.25-4.57,5-6.76,3.8-4.12,5.65-6.23c1.62-1.86,2.79-4,4.23-6s3.34-3.64,4.8-5.62,2.26-4.52,3.91-6.36,4-2.93,5.55-4.75,2.26-4.26,3.65-6.26c1.91-2.77,5.48-5,6.48-8.08a61.28,61.28,0,0,1-6.11,5.37c-2.15,1.6-4,3.69-6.35,5.13s-4.55,3-6.89,4.32-5.6,1.17-7.91,2.56-4,3.86-6.18,5.39-5.08,2.33-7.1,4.11a70.07,70.07,0,0,0-5.27,5.21c-1.66,1.8-3,3.89-4.55,5.81s-2.36,4.35-3.78,6.34-3.45,3.55-4.85,5.55-1.74,4.78-3.19,6.75-4.32,2.82-5.88,4.71c-1.92,2.34-2.31,5.56-3.88,7.75a50.54,50.54,0,0,0-4.64,7,44.6,44.6,0,0,0-3.3,7.76c-.63,2.2-2.17,4.13-3.23,6.28s-2.4,4.11-3.38,6.22-.76,4.76-1.15,7c-.43,2.53-2.15,5-2.73,7.84-.54,2.63.29,5.63-.26,8.35s-1.77,5.29-2.21,7.94c-.46,2.84-.62,5.6-.83,8.17"/><path class="cls-16" d="M1158.31,798.79a22.38,22.38,0,0,1,1.06-9c1.08-3,3-5.6,4.41-8.09,1.23-2.16,2.4-4.35,3.64-6.49s2.82-4.1,4.06-6.25,1-5.16,2.2-7.31,2.68-4.17,3.88-6.34,2.68-4.17,3.85-6.37c1.32-2.46,2.77-4.85,4.13-7.29s2.38-5.08,3.79-7.49,3.73-4.28,5.2-6.65,3.37-4.45,4.92-6.78,2-5.37,3.67-7.63,3.25-4.57,5-6.76,3.8-4.12,5.65-6.23c1.62-1.86,2.79-4,4.23-6s3.34-3.64,4.8-5.62,2.26-4.52,3.91-6.36,4-2.93,5.55-4.75,2.26-4.26,3.65-6.26c1.91-2.77,5.48-5,6.48-8.08a61.28,61.28,0,0,1-6.11,5.37c-2.15,1.6-4,3.69-6.35,5.13s-4.55,3-6.89,4.32-5.6,1.17-7.91,2.56-4,3.86-6.18,5.39-5.08,2.33-7.1,4.11a70.07,70.07,0,0,0-5.27,5.21c-1.66,1.8-3,3.89-4.55,5.81s-2.36,4.35-3.78,6.34-3.45,3.55-4.85,5.55-1.74,4.78-3.19,6.75-4.32,2.82-5.88,4.71c-1.92,2.34-2.31,5.56-3.88,7.75a50.54,50.54,0,0,0-4.64,7,44.6,44.6,0,0,0-3.3,7.76c-.63,2.2-2.17,4.13-3.23,6.28s-2.4,4.11-3.38,6.22-.76,4.76-1.15,7c-.43,2.53-2.15,5-2.73,7.84-.54,2.63.29,5.63-.26,8.35s-1.77,5.29-2.21,7.94c-.46,2.84-.62,5.6-.83,8.17"/><path class="cls-15" d="M1138.82,805.68a31.83,31.83,0,0,1,.5-7.27c.34-2.33,1.92-4.44,2.57-6.76s1.18-4.63,1.91-6.87.75-4.83,1.38-7.06c.67-2.39,1.64-4.69,2.17-7.11s.18-5,.66-7.46,1.15-4.84,1.67-7.27,1-4.9,1.67-7.3a57.75,57.75,0,0,0,1.17-7c.34-2.36,2.41-4.5,2.72-6.88s-1.2-5.07-.69-7.4a40.8,40.8,0,0,1,2.6-7.56c1-2.34,3.92-3.87,5.14-6.2s1-5.38,2-7.7,3.19-4.45,3.81-6.89c.69-2.69,1-5.51,2.09-8.15s2.91-4.8,4.17-7.33,1.22-5.71,2.61-8.16,3.3-4.61,4.76-7,3.6-4.42,5.06-6.77,2.15-5.33,3.55-7.69c1.21-2,3.42-3.38,4.89-5.22s2.41-4.12,3.89-6,3.9-3.05,5.12-5.07,1.56-4.53,2.74-6.55,2.28-4.09,3.47-6.11,3.23-3.51,4.47-5.5c1.34-2.18,1.36-5.22,2.66-7.55s3-4.32,4.31-6.6,2.11-4.92,3.52-7.1,4.13-4.6,5.77-6.57c-1.84,1.84-2.28,5.31-2.51,7.84-.24,2.7.29,5.53-.22,8.21s-1.25,5.34-1.92,8c-.63,2.45-.68,5-1.2,7.44s-2.58,4.6-3.08,7.06-.53,5-1.12,7.45-1.13,4.85-1.9,7.27-2.32,4.63-3.18,7-1,5.1-2,7.47-1.94,4.75-3,7.09-1.78,4.83-3,7.13c-1.37,2.59-3.24,4.9-4.76,7.41s-2.83,5.14-4.42,7.59-2.63,5.28-4.23,7.74-4.23,4.23-5.76,6.74-2.13,5.5-3.53,8.09c-1.2,2.24-2.18,4.55-3.31,6.81s-3.29,4-4.36,6.33-1.92,4.7-2.94,7-2.4,4.48-3.39,6.81-.57,5.25-1.54,7.59-2.28,4.53-3.24,6.88-3.32,4.1-4.29,6.45c-1.14,2.78-1.47,5.95-2.71,8.76s-1.88,5.81-3,8.64-2.23,5.64-3.07,8.54c-.61,2.12-2.76,4.13-3.51,6.65-.69,2.33.26,5.16-.2,7.53a25.28,25.28,0,0,0-.42,7.1"/><path class="cls-16" d="M1138.82,805.68a31.83,31.83,0,0,1,.5-7.27c.34-2.33,1.92-4.44,2.57-6.76s1.18-4.63,1.91-6.87.75-4.83,1.38-7.06c.67-2.39,1.64-4.69,2.17-7.11s.18-5,.66-7.46,1.15-4.84,1.67-7.27,1-4.9,1.67-7.3a57.75,57.75,0,0,0,1.17-7c.34-2.36,2.41-4.5,2.72-6.88s-1.2-5.07-.69-7.4a40.8,40.8,0,0,1,2.6-7.56c1-2.34,3.92-3.87,5.14-6.2s1-5.38,2-7.7,3.19-4.45,3.81-6.89c.69-2.69,1-5.51,2.09-8.15s2.91-4.8,4.17-7.33,1.22-5.71,2.61-8.16,3.3-4.61,4.76-7,3.6-4.42,5.06-6.77,2.15-5.33,3.55-7.69c1.21-2,3.42-3.38,4.89-5.22s2.41-4.12,3.89-6,3.9-3.05,5.12-5.07,1.56-4.53,2.74-6.55,2.28-4.09,3.47-6.11,3.23-3.51,4.47-5.5c1.34-2.18,1.36-5.22,2.66-7.55s3-4.32,4.31-6.6,2.11-4.92,3.52-7.1,4.13-4.6,5.77-6.57c-1.84,1.84-2.28,5.31-2.51,7.84-.24,2.7.29,5.53-.22,8.21s-1.25,5.34-1.92,8c-.63,2.45-.68,5-1.2,7.44s-2.58,4.6-3.08,7.06-.53,5-1.12,7.45-1.13,4.85-1.9,7.27-2.32,4.63-3.18,7-1,5.1-2,7.47-1.94,4.75-3,7.09-1.78,4.83-3,7.13c-1.37,2.59-3.24,4.9-4.76,7.41s-2.83,5.14-4.42,7.59-2.63,5.28-4.23,7.74-4.23,4.23-5.76,6.74-2.13,5.5-3.53,8.09c-1.2,2.24-2.18,4.55-3.31,6.81s-3.29,4-4.36,6.33-1.92,4.7-2.94,7-2.4,4.48-3.39,6.81-.57,5.25-1.54,7.59-2.28,4.53-3.24,6.88-3.32,4.1-4.29,6.45c-1.14,2.78-1.47,5.95-2.71,8.76s-1.88,5.81-3,8.64-2.23,5.64-3.07,8.54c-.61,2.12-2.76,4.13-3.51,6.65-.69,2.33.26,5.16-.2,7.53a25.28,25.28,0,0,0-.42,7.1"/><path class="cls-15" d="M1111.5,805.68a67.47,67.47,0,0,1-3.09-7.12c-1-2.43-3-4.47-3.71-7s-1.42-5.06-2-7.6-.4-5.25-.86-7.82-2-5-2.36-7.57-.54-5.21-.93-7.79.18-5.34-.27-7.9-1.52-5.06-2.1-7.59c-.61-2.68-1.9-5.22-2.49-7.9s-1.43-5.33-2-8-.26-5.57-.81-8.26-.46-5.52-1-8.21-1.33-5.35-1.84-8.05-2.3-5.17-2.79-7.87-.91-5.44-1.37-8.15-.94-5.43-1.38-8.14.75-5.69.34-8.4-1.64-5.46-1.95-8.28.29-5.68.07-8.5-.7-5.6-.86-8.42-1.46-5.59-1.58-8.4-.41-5.65-.52-8.46.44-5.68.32-8.49.8-5.93.61-8.86-1-5.8-1.08-8.73a61.44,61.44,0,0,1,.3-8.68c1.66,2.08,2.16,4.66,3.14,7.23a78.19,78.19,0,0,1,2.9,7.52c.74,2.72,1.81,5.26,2.7,7.62s.95,5,1.86,7.28,1.85,4.6,2.73,6.92,2.52,4.38,3.29,6.72c.87,2.66,1.55,5.38,2.38,8s.74,5.62,1.57,8.28,2.77,5,3.65,7.63,1.07,5.54,2,8.17,2.09,5.19,3.19,7.77,2.47,5,3.75,7.52,3.26,4.36,4.17,6.77,1.12,5.22,1.79,7.72.9,5.17,1.35,7.74.22,5.22.47,7.82,1.32,5.14,1.41,7.76-.34,5.23-.37,7.85.74,5.26.63,7.87-1.12,5.19-1.26,7.8.1,5.25,0,7.86-.41,5.22-.52,7.83-.3,5.24-.34,7.84.91,5.22,1,7.83-1.37,5.33-1.13,7.93c.29,3.11,1.54,6.08,1.87,9.15s0,6.11,0,9.25"/><path class="cls-16" d="M1111.5,805.68a67.47,67.47,0,0,1-3.09-7.12c-1-2.43-3-4.47-3.71-7s-1.42-5.06-2-7.6-.4-5.25-.86-7.82-2-5-2.36-7.57-.54-5.21-.93-7.79.18-5.34-.27-7.9-1.52-5.06-2.1-7.59c-.61-2.68-1.9-5.22-2.49-7.9s-1.43-5.33-2-8-.26-5.57-.81-8.26-.46-5.52-1-8.21-1.33-5.35-1.84-8.05-2.3-5.17-2.79-7.87-.91-5.44-1.37-8.15-.94-5.43-1.38-8.14.75-5.69.34-8.4-1.64-5.46-1.95-8.28.29-5.68.07-8.5-.7-5.6-.86-8.42-1.46-5.59-1.58-8.4-.41-5.65-.52-8.46.44-5.68.32-8.49.8-5.93.61-8.86-1-5.8-1.08-8.73a61.44,61.44,0,0,1,.3-8.68c1.66,2.08,2.16,4.66,3.14,7.23a78.19,78.19,0,0,1,2.9,7.52c.74,2.72,1.81,5.26,2.7,7.62s.95,5,1.86,7.28,1.85,4.6,2.73,6.92,2.52,4.38,3.29,6.72c.87,2.66,1.55,5.38,2.38,8s.74,5.62,1.57,8.28,2.77,5,3.65,7.63,1.07,5.54,2,8.17,2.09,5.19,3.19,7.77,2.47,5,3.75,7.52,3.26,4.36,4.17,6.77,1.12,5.22,1.79,7.72.9,5.17,1.35,7.74.22,5.22.47,7.82,1.32,5.14,1.41,7.76-.34,5.23-.37,7.85.74,5.26.63,7.87-1.12,5.19-1.26,7.8.1,5.25,0,7.86-.41,5.22-.52,7.83-.3,5.24-.34,7.84.91,5.22,1,7.83-1.37,5.33-1.13,7.93c.29,3.11,1.54,6.08,1.87,9.15s0,6.11,0,9.25"/><path class="cls-15" d="M1118.33,809.84c-.53-2.59-1.87-5.51-1.94-8.69-.06-2.92.43-6,.52-8.89.1-3.19,1.28-6.24,1.28-8.85s-.15-5.09,0-7.66-1-5.18-.81-7.75,1.49-5,1.69-7.58-.75-5.2-.57-7.75.53-5.1.64-7.66,1.21-5.1,1.22-7.66-.61-5.13-.75-7.69-1.15-5-1.49-7.55-.14-4.91-.28-7.34-.38-4.86-.4-7.3,1.43-4.85,1.48-7.28.12-4.86.17-7.28-1.72-4.9-1.71-7.31,2.33-4.72,2.9-7.15-.23-5.12,0-7.59c.31-2.89,0-5.7.22-8.5a43.09,43.09,0,0,1,1.76-8.46c.77-2.63,2.32-5,3.15-7.68s2.31-5.05,3.15-7.67,0-5.79.83-8.42,2.72-4.94,3.48-7.58,1.53-5.32,2.2-8,1.49-5.35,2-8c.7-3.59.39-7.39,1.1-10.95.51-2.57,2.82-5.8,2.71-8.32a29.07,29.07,0,0,1,2.38,8.46c.15,2.66.1,5.33.43,7.69s.2,4.84.54,7.21,1.24,4.68,1.6,7.06-.61,5-.22,7.34,1.84,4.56,2.27,6.93-.26,5,.23,7.43,1.52,4.68,2,7.08,1.19,4.76,1.61,7.16,1.77,4.71,2.07,7.13.12,5,.25,7.39c.15,2.79-.14,5.59-.09,8.34s-1,5.53-1.08,8.29,0,5.52-.21,8.28-.07,5.54-.49,8.29-1.29,5.36-1.91,8.08-1.42,5.28-2.24,8-1.67,5.2-2.71,7.81-1.5,5.15-2.42,7.67-2.16,4.91-3,7.46-.81,5.34-1.59,7.91-2.69,4.8-3.38,7.38.12,5.55-.48,8.15-1.12,5.21-1.62,7.83-2.59,5-3,7.64-.59,5.37-.86,8,.36,5.42.22,8.08,0,5.35,0,8-.88,5.28-.72,7.94c-.46.7,1.32-.67,1-1"/><path class="cls-16" d="M1118.33,809.84c-.53-2.59-1.87-5.51-1.94-8.69-.06-2.92.43-6,.52-8.89.1-3.19,1.28-6.24,1.28-8.85s-.15-5.09,0-7.66-1-5.18-.81-7.75,1.49-5,1.69-7.58-.75-5.2-.57-7.75.53-5.1.64-7.66,1.21-5.1,1.22-7.66-.61-5.13-.75-7.69-1.15-5-1.49-7.55-.14-4.91-.28-7.34-.38-4.86-.4-7.3,1.43-4.85,1.48-7.28.12-4.86.17-7.28-1.72-4.9-1.71-7.31,2.33-4.72,2.9-7.15-.23-5.12,0-7.59c.31-2.89,0-5.7.22-8.5a43.09,43.09,0,0,1,1.76-8.46c.77-2.63,2.32-5,3.15-7.68s2.31-5.05,3.15-7.67,0-5.79.83-8.42,2.72-4.94,3.48-7.58,1.53-5.32,2.2-8,1.49-5.35,2-8c.7-3.59.39-7.39,1.1-10.95.51-2.57,2.82-5.8,2.71-8.32a29.07,29.07,0,0,1,2.38,8.46c.15,2.66.1,5.33.43,7.69s.2,4.84.54,7.21,1.24,4.68,1.6,7.06-.61,5-.22,7.34,1.84,4.56,2.27,6.93-.26,5,.23,7.43,1.52,4.68,2,7.08,1.19,4.76,1.61,7.16,1.77,4.71,2.07,7.13.12,5,.25,7.39c.15,2.79-.14,5.59-.09,8.34s-1,5.53-1.08,8.29,0,5.52-.21,8.28-.07,5.54-.49,8.29-1.29,5.36-1.91,8.08-1.42,5.28-2.24,8-1.67,5.2-2.71,7.81-1.5,5.15-2.42,7.67-2.16,4.91-3,7.46-.81,5.34-1.59,7.91-2.69,4.8-3.38,7.38.12,5.55-.48,8.15-1.12,5.21-1.62,7.83-2.59,5-3,7.64-.59,5.37-.86,8,.36,5.42.22,8.08,0,5.35,0,8-.88,5.28-.72,7.94c-.46.7,1.32-.67,1-1"/><path class="cls-17" d="M1532.82,431.12l-250.76-125.4c-9.54-4.77-18.35-6.06-25.48-4.37h0a23.7,23.7,0,0,0-3.43,1.11l-16,5.13,6.66,2.41c-3,4.36-4.71,10.14-4.71,17.18V901.87c0,23.73,19.24,52.58,43,64.44l250.76,125.41a48.84,48.84,0,0,0,13.41,4.56l-3,4.6,14.61-4.7a22.42,22.42,0,0,0,4.38-1.41l.11,0h0c8.29-3.69,13.47-12.19,13.47-24.49V495.56C1575.78,471.84,1556.55,443,1532.82,431.12Z"/><path class="cls-18" d="M1517.54,1096.56,1266.78,971.15c-23.72-11.86-43-40.71-43-64.43V332c0-23.73,19.23-33.34,43-21.48L1517.54,436c23.73,11.86,43,40.71,43,64.43v574.68C1560.5,1098.81,1541.27,1108.42,1517.54,1096.56Z"/><path class="cls-19" d="M1536.45,1091.76a34.19,34.19,0,0,1-14.55-4l-250.76-125.4c-20.29-10.15-37.44-35.57-37.44-55.52V332.13c0-6.31,1.85-16.89,14.18-16.77a34.19,34.19,0,0,1,14.55,4L1365,370.62a7.16,7.16,0,0,1,3.83,5.12l3.69,20.64a7.11,7.11,0,0,0,3.83,5.12l25.14,12.62a3.82,3.82,0,0,0,5.43-2.48l3.28-13.26a3.75,3.75,0,0,1,5.34-2.44l97.7,48.85c20.29,10.15,37.43,35.57,37.43,55.52V1075C1550.62,1081.3,1548.78,1091.87,1536.45,1091.76Z"/><ellipse class="cls-20" cx="1389.45" cy="392.06" rx="3.89" ry="6.35" transform="translate(-40.77 195.21) rotate(-7.92)"/><rect class="cls-21" x="1447.33" y="547.3" width="8.69" height="8.77" transform="translate(2871.17 -78.17) rotate(135.26)"/><rect class="cls-21" x="1505.32" y="487.36" width="4.94" height="4.98" transform="translate(91.94 1203.13) rotate(-44.74)"/><rect class="cls-21" x="1425.11" y="464.48" width="4.94" height="4.98" transform="translate(84.81 1140.05) rotate(-44.74)"/><rect class="cls-21" x="1269.54" y="578.87" width="4.94" height="4.98" transform="translate(-40.75 1063.68) rotate(-44.74)"/><rect class="cls-21" x="1499.77" y="600.23" width="4.94" height="4.98" transform="translate(10.9 1231.91) rotate(-44.74)"/><rect class="cls-21" x="1505.32" y="762.58" width="4.94" height="4.98" transform="translate(-101.77 1282.84) rotate(-44.74)"/><rect class="cls-21" x="1492.2" y="718.48" width="4.94" height="4.98" transform="translate(-74.53 1260.83) rotate(-44.74)"/><rect class="cls-21" x="1290.51" y="824.05" width="4.94" height="4.98" transform="translate(-207.25 1149.45) rotate(-44.74)"/><rect class="cls-21" x="1488.69" y="888.83" width="4.94" height="4.98" transform="translate(-195.45 1307.71) rotate(-44.74)"/><rect class="cls-21" x="1269.54" y="899.7" width="4.94" height="4.98" transform="translate(-266.57 1156.61) rotate(-44.74)"/><rect class="cls-21" x="1278.66" y="407.29" width="4.94" height="4.98" transform="translate(82.65 1020.4) rotate(-44.74)"/><rect class="cls-21" x="1330.28" y="451.3" width="4.94" height="4.98" transform="translate(66.62 1069.48) rotate(-44.74)"/><path class="cls-22" d="M1448.87,837.6l-134.45-66.44c-6.14-3-11.11-10.46-11.11-16.59v-138c0-6.13,5-8.65,11.11-5.62l134.45,66.45c6.14,3,11.11,10.45,11.11,16.59V832C1460,838.12,1455,840.63,1448.87,837.6Z"/><path class="cls-22" d="M1426.17,666.18l-21.05-10.39v-39.1c0-16.22-10.53-34.62-23.47-41s-23.48,1.6-23.48,17.82v39.09l-21-10.4V583.09c0-30.76,20-45.91,44.52-33.78s44.52,47,44.52,77.78Z"/><path class="cls-19" d="M1399.35,710.09c0-12.25-7.93-26.1-17.7-30.93s-17.71,1.18-17.71,13.43c0,7.64,3.08,15.9,7.77,22.21l-3,40.71,25.81,12.75-3-43.64C1396.27,722.94,1399.35,717.73,1399.35,710.09Z"/><polygon class="cls-23" points="1798.6 1021.82 1698.68 1050.68 1613.52 1008.29 1713.43 979.43 1798.6 1021.82"/><polygon class="cls-24" points="1698.72 1136.39 1698.68 1050.68 1613.52 1008.29 1613.56 1093.99 1698.72 1136.39"/><polygon class="cls-17" points="1688.39 1118.05 1688.38 1089.14 1659.65 1074.84 1659.66 1103.75 1688.39 1118.05"/><polygon class="cls-25" points="1798.6 1021.82 1698.68 1050.68 1698.8 1136.23 1798.71 1107.37 1798.6 1021.82"/><polygon class="cls-26" points="820.54 437.75 824.78 430.74 820.53 427.91 682.84 470.5 682.92 618.34 687.17 621.17 690.26 616.07 820.61 575.75 820.54 437.75"/><polygon class="cls-26" points="639.84 571.2 644.08 564.19 639.83 561.35 542.94 591.85 543.01 776.31 547.27 779.14 550.36 774.03 639.9 745.81 639.84 571.2"/><polygon class="cls-26" points="882.4 616.42 886.64 609.41 882.39 606.58 700.67 663 700.74 753.81 704.99 756.64 708.09 751.53 882.47 697.38 882.4 616.42"/><polygon class="cls-27" points="824.78 430.74 687.09 473.33 687.17 621.17 824.86 578.59 824.78 430.74"/><polygon class="cls-28" points="644.08 564.19 547.19 594.69 547.27 779.14 644.16 748.64 644.08 564.19"/><polygon class="cls-29" points="886.64 609.41 704.92 665.83 704.99 756.64 886.72 700.22 886.64 609.41"/><polygon class="cls-23" points="1787.4 919.32 1724.45 956.82 1633.4 935.12 1696.36 897.62 1787.4 919.32"/><polygon class="cls-24" points="1724.49 1049.15 1724.45 956.82 1633.4 935.12 1633.44 1027.45 1724.49 1049.15"/><polygon class="cls-25" points="1787.4 919.32 1724.45 956.82 1724.57 1048.99 1787.52 1011.49 1787.4 919.32"/><polyline class="cls-16" points="1741.57 908.29 1678.62 945.78 1678.74 1037.96"/><path class="cls-30" d="M693.41,996.51l-3.65-6.08L707.12,921s25.73-19.66,67-15.87c7-9.3,17-19.77,49.34-27.45l5.24,3.35"/><path class="cls-13" d="M778.24,970.09s36.93,20.11,28.33-33.38"/><polygon class="cls-31" points="692.69 999.3 711.5 926.24 777.75 910.62 830.6 879.89 800.28 958.85 758.61 985.29 692.69 999.3"/><path class="cls-13" d="M658,916.83c-1.59,1.25-38.93,31-22.64,59.58s55.38,24,79.21-.13l8,23c-2.17.65-21.78,18.87-50.51,19.14-22.63.21-45.28-8.12-56.8-28.31-10.91-19.11-8.75-42,6.09-64.32C631.86,910,639,905.69,639,905.69"/><path class="cls-13" d="M700.34,987.08s8.19-17.6,15.67-20.69,7,5.06,7,5.06,24.15-8.71,18.47,12c-5,18.2-25.12,19.62-25.12,19.62"/><line class="cls-31" x1="777.75" y1="910.62" x2="758.61" y2="985.29"/><path class="cls-13" d="M810.84,931.36s-8.91-8-16.32-.42-2.47,21.36,5.76,27.91,24-19.74,13.51-35.19Z"/><path class="cls-13" d="M1059.46,1061v84.4s-16.19,8.56-16.19,14.94c0,13.71,33.79,13.06,78.64-9.13,24.92-12.31-5.85-25.92-49.69-10.82V1057"/><path class="cls-13" d="M1127.73,1080.75v84.41s-16.19,8.55-16.19,14.93c0,13.71,33.78,13.06,78.64-9.12,24.92-12.32-5.85-25.93-49.69-10.83v-83.42"/><path class="cls-13" d="M1185.19,1008.59a41.6,41.6,0,0,1,32.38,15.57c10.28,12.76-1.62,24.49-1.62,24.49"/><ellipse class="cls-13" cx="1107.83" cy="1046.83" rx="65.14" ry="102.03" transform="translate(-74.52 2008.69) rotate(-82.51)"/><ellipse class="cls-13" cx="1107.36" cy="960.42" rx="42.62" ry="66.75" transform="translate(10.73 1933.08) rotate(-82.51)"/><path class="cls-18" d="M1124,1097.48s71-19.82,71-54.91c0-28-59.93-36.21-93.93-30.21l21,12.63s67.18-6.7,68.55,12.08-37.87,36.74-67.11,49"/><path class="cls-13" d="M1155.32,1046.83s16.66,52,47,56.65c22.17,3.4,44.88-28,2.27-71.79,7.15,19.54,1.9,40,1.9,40s-12.13-10.75-17-37.75"/><path class="cls-32" d="M1119.21,1020l-82.2-44.3c-2.52-1.35-4.81-1.59-6.51-.89h0l-31.65,10.91,28.67,54.32v0c0,4.26,2.85,9.41,6.73,12.7l4.48,8.48,56.66,48.85,29-9.91a4.91,4.91,0,0,0,1.93-.65h0c1.45-.89,2.34-2.58,2.34-5v-60C1128.7,1029.35,1124.43,1022.78,1119.21,1020Z"/><path class="cls-33" d="M1088.12,1109.58l-82.21-44.3c-5.22-2.81-9.48-9.37-9.48-14.59v-60c0-5.22,4.26-7.19,9.48-4.38l82.21,44.3c5.22,2.81,9.48,9.38,9.48,14.59v60C1097.6,1110.42,1093.34,1112.39,1088.12,1109.58Z"/><line class="cls-16" x1="996.43" y1="1014.38" x2="1097.6" y2="1070.73"/><polygon class="cls-34" points="1024.48 1038.85 1015.98 1034.02 1015.98 1018.39 1024.48 1023.22 1024.48 1038.85"/><polygon class="cls-34" points="1071.87 1065.46 1063.37 1060.63 1063.37 1045 1071.87 1049.83 1071.87 1065.46"/></g></g></svg>